<svg width="611" height="367" viewBox="0 0 611 367" fill="none" xmlns="http://www.w3.org/2000/svg">
<path d="M548.574 83.177C569.206 83.177 585.932 66.4628 585.932 45.8447C585.932 25.2266 569.206 8.51233 548.574 8.51233C527.941 8.51233 511.215 25.2266 511.215 45.8447C511.215 66.4628 527.941 83.177 548.574 83.177Z" stroke="white" stroke-width="14" stroke-miterlimit="10" stroke-linecap="round" stroke-linejoin="round"/>
<path d="M458.889 141.182C515.961 140.331 528.86 144.465 529.468 148.478C530.199 154.072 507.686 161.733 503.305 163.192C483.713 169.759 466.434 169.759 455.603 168.786C455.725 171.097 459.132 210.375 481.036 218.036C504.279 226.183 534.823 194.201 544.314 164.287C554.171 133.399 546.14 90.1085 524.114 83.7851C505.252 78.1913 474.708 100.08 458.889 141.182Z" stroke="white" stroke-width="14" stroke-miterlimit="10" stroke-linecap="round" stroke-linejoin="round"/>
<path d="M528.008 200.889C532.511 206.483 540.299 214.874 551.372 223.021C573.155 239.073 586.784 238.343 593.598 252.206C600.656 266.555 594.207 283.823 593.72 284.918C588.244 298.902 578.022 301.577 578.996 309.725C580.334 321.642 603.212 324.804 602.482 330.033C601.387 337.572 552.346 340.734 549.06 329.546C547.235 323.709 559.891 319.939 565.853 303.28C566.705 300.848 573.155 282.242 564.271 269.231C556.605 258.043 544.436 260.354 525.331 250.625C510.363 242.964 500.506 232.75 494.544 225.453C499.168 223.994 505.617 221.319 512.432 216.576C519.855 211.104 524.966 205.146 528.008 200.889Z" stroke="white" stroke-width="14" stroke-miterlimit="10" stroke-linecap="round" stroke-linejoin="round"/>
<path d="M457.915 190.796C457.794 193.472 458.037 198.944 461.201 204.537C466.799 214.509 477.264 217.063 479.089 217.549C471.91 224.237 462.296 232.628 450.736 241.87C438.689 251.355 433.699 255.246 427.98 259.867C422.869 264.002 419.218 267.163 417.393 268.623C371.273 307.293 362.39 314.346 363.12 323.587C364.337 337.207 385.267 341.342 383.442 348.759C381.251 357.758 347.544 363.96 338.782 352.043C325.274 333.437 375.897 275.554 395.489 251.72C418.488 223.508 441.366 203.686 457.915 190.796Z" stroke="white" stroke-width="14" stroke-miterlimit="10" stroke-linecap="round" stroke-linejoin="round"/>
<path d="M464.608 118.077C457.185 108.835 404.616 129.994 406.198 145.681C407.171 154.923 426.885 159.909 437.837 162.706C484.444 174.501 532.511 157.112 531.902 149.694C531.537 144.709 508.538 142.641 505.982 142.398C480.671 140.088 466.312 148.721 461.323 142.398C456.212 135.831 468.867 123.306 464.608 118.077Z" stroke="white" stroke-width="14" stroke-miterlimit="10" stroke-linecap="round" stroke-linejoin="round"/>
<path d="M273.557 299.024L8.51825 318.48" stroke="white" stroke-width="14" stroke-miterlimit="10" stroke-linecap="round" stroke-linejoin="round"/>
<path d="M369.204 239.438L104.166 258.773" stroke="white" stroke-width="14" stroke-miterlimit="10" stroke-linecap="round" stroke-linejoin="round"/>
<path d="M507.808 37.9404L406.928 45.3583" stroke="white" stroke-width="14" stroke-miterlimit="10" stroke-linecap="round" stroke-linejoin="round"/>
<path d="M540.907 8.63391L440.027 16.0517" stroke="white" stroke-width="14" stroke-miterlimit="10" stroke-linecap="round" stroke-linejoin="round"/>
<path d="M507.808 60.4371L406.928 67.7333" stroke="white" stroke-width="14" stroke-miterlimit="10" stroke-linecap="round" stroke-linejoin="round"/>
<path d="M517.056 312.886L248.732 348.395" stroke="white" stroke-width="14" stroke-miterlimit="10" stroke-linecap="round" stroke-linejoin="round"/>
</svg>
