<svg width="504" height="344" viewBox="0 0 504 344" fill="none" xmlns="http://www.w3.org/2000/svg">
<path d="M430.667 212.438C434.788 215.834 424.121 244.328 401.576 263.365C369.091 290.89 325.697 287.98 289.939 285.07C278.303 284.1 150.667 273.187 143.636 224.443C142.424 216.197 144.121 203.344 160.364 185.641C165.091 187.46 172.121 189.643 180.97 190.613C195.515 192.189 198.545 190.613 214.303 188.672C227.152 187.096 236.727 190.734 252.485 196.19C260.242 198.858 266.061 202.011 270.788 205.284C277.091 209.65 281.576 213.045 284.727 215.591C288.121 218.38 306.545 233.901 313.455 238.629C337.333 254.999 372.485 244.45 379.273 242.388C411.879 232.567 426.788 209.043 430.667 212.438Z" stroke="black" stroke-width="17" stroke-miterlimit="10" stroke-linecap="round" stroke-linejoin="round"/>
<path d="M493.697 228.808C494.061 281.796 387.03 333.572 293.697 333.693C203.152 333.815 95.2728 285.555 93.697 228.808C92.9697 204.678 111.758 183.337 131.515 167.453C142.303 176.183 159.03 186.975 180.97 190.613C206.424 194.735 214.545 185.277 236.727 189.4C247.636 191.461 246.909 196.675 281.333 218.865C291.152 225.17 296 228.323 299.879 230.384C316.364 239.478 351.394 251.725 387.879 238.266C431.273 222.26 447.273 178.123 449.939 170.363C486.424 194.614 493.697 215.106 493.697 228.808Z" stroke="black" stroke-width="17" stroke-miterlimit="10"/>
<path d="M63.394 45.1068C59.8788 32.2538 48.8485 23.766 37.9394 24.4935C23.6364 25.4636 15.0304 41.7117 16.1213 54.8072C17.2122 67.7815 27.7576 75.4206 29.4546 76.6331C27.5152 77.6031 14.9091 83.9084 11.2728 98.459C8.96975 107.674 10.0607 121.255 19.7576 128.773C32.3637 138.473 49.697 130.106 52.4849 128.773C71.0304 119.8 75.0304 98.8227 75.5152 96.0339C104.606 99.3078 133.697 102.46 162.788 105.734C172 107.189 180.727 101.854 183.394 93.6088C186.424 84.3934 181.091 73.8442 171.273 70.5704C135.394 62.0825 99.394 53.5947 63.394 45.1068Z" stroke="black" stroke-width="17" stroke-miterlimit="10"/>
<path d="M156.727 43.8943C169.939 24.3722 191.636 18.6732 206.424 14.7931C214.303 12.7318 235.273 7.51779 260.97 12.368C285.576 16.9757 289.212 26.0698 309.455 25.706C327.273 25.3423 330.424 18.067 347.03 17.2182C368.364 16.1269 384.97 26.9186 397.939 35.4064C410.424 43.5305 449.091 68.8727 457.455 111.191C470.545 178.487 399.394 251.846 347.03 248.815C327.03 247.724 306.061 235.113 292.485 226.989C262.061 208.68 259.636 195.342 236.727 189.4C213.576 183.337 208.97 195.099 180.97 190.613C172.727 189.279 131.879 182.731 121.576 153.024C114.788 133.502 124.727 113.98 128.848 106.947C148.364 114.707 167.636 112.888 177.455 101.975C178.545 100.763 185.333 93.245 183.758 84.6359C181.818 73.8442 167.394 64.6288 147.758 64.9926C148.97 59.6574 151.394 51.7758 156.727 43.8943Z" stroke="black" stroke-width="17" stroke-miterlimit="10" stroke-linecap="round" stroke-linejoin="round"/>
</svg>
