<svg width="523" height="441" viewBox="0 0 523 441" fill="none" xmlns="http://www.w3.org/2000/svg">
<path d="M181.757 256.412C181.326 182.72 180.751 108.885 180.32 35.1938C290.524 27.5804 400.584 19.8234 510.787 12.2101C510.356 88.7748 509.782 165.483 509.35 242.048C400.153 246.787 290.955 251.671 181.757 256.412Z" stroke="black" stroke-width="17" stroke-miterlimit="10" stroke-linecap="round" stroke-linejoin="round"/>
<path d="M45.2596 378.408C91.2376 341.06 137.215 303.712 183.193 266.363C289.518 262.484 395.842 258.749 502.166 254.871C450.441 310.893 398.715 366.916 346.99 422.939C235.35 418.199 123.853 413.315 12.2129 408.574C23.2764 398.519 34.1962 388.464 45.2596 378.408Z" stroke="black" stroke-width="17" stroke-miterlimit="10" stroke-linecap="round" stroke-linejoin="round"/>
<path d="M195.55 303.385L212.648 303.098" stroke="black" stroke-width="17" stroke-miterlimit="10" stroke-linecap="round" stroke-linejoin="round"/>
<path d="M247.994 302.666L265.092 302.38" stroke="black" stroke-width="17" stroke-miterlimit="10" stroke-linecap="round" stroke-linejoin="round"/>
<path d="M300.438 301.805L317.68 301.517" stroke="black" stroke-width="17" stroke-miterlimit="10" stroke-linecap="round" stroke-linejoin="round"/>
<path d="M352.882 300.943L370.123 300.656" stroke="black" stroke-width="17" stroke-miterlimit="10" stroke-linecap="round" stroke-linejoin="round"/>
<path d="M405.468 300.081L422.566 299.794" stroke="black" stroke-width="17" stroke-miterlimit="10" stroke-linecap="round" stroke-linejoin="round"/>
<path d="M164.371 329.816L181.469 329.529" stroke="black" stroke-width="17" stroke-miterlimit="10" stroke-linecap="round" stroke-linejoin="round"/>
<path d="M216.815 328.955L233.913 328.667" stroke="black" stroke-width="17" stroke-miterlimit="10" stroke-linecap="round" stroke-linejoin="round"/>
<path d="M269.259 328.092L286.5 327.805" stroke="black" stroke-width="17" stroke-miterlimit="10" stroke-linecap="round" stroke-linejoin="round"/>
<path d="M321.702 327.231L338.944 326.943" stroke="black" stroke-width="17" stroke-miterlimit="10" stroke-linecap="round" stroke-linejoin="round"/>
<path d="M374.29 326.513L391.388 326.225" stroke="black" stroke-width="17" stroke-miterlimit="10" stroke-linecap="round" stroke-linejoin="round"/>
<path d="M133.192 356.103L150.29 355.817" stroke="black" stroke-width="17" stroke-miterlimit="10" stroke-linecap="round" stroke-linejoin="round"/>
<path d="M185.637 355.385L202.735 355.099" stroke="black" stroke-width="17" stroke-miterlimit="10" stroke-linecap="round" stroke-linejoin="round"/>
<path d="M238.08 354.524L255.178 354.236" stroke="black" stroke-width="17" stroke-miterlimit="10" stroke-linecap="round" stroke-linejoin="round"/>
<path d="M290.524 353.662L307.765 353.375" stroke="black" stroke-width="17" stroke-miterlimit="10" stroke-linecap="round" stroke-linejoin="round"/>
<path d="M342.967 352.8L360.209 352.513" stroke="black" stroke-width="17" stroke-miterlimit="10" stroke-linecap="round" stroke-linejoin="round"/>
<path d="M101.87 382.535L119.112 382.248" stroke="black" stroke-width="17" stroke-miterlimit="10" stroke-linecap="round" stroke-linejoin="round"/>
<path d="M154.458 381.673L171.556 381.386" stroke="black" stroke-width="17" stroke-miterlimit="10" stroke-linecap="round" stroke-linejoin="round"/>
<path d="M206.901 380.811L223.999 380.524" stroke="black" stroke-width="17" stroke-miterlimit="10" stroke-linecap="round" stroke-linejoin="round"/>
<path d="M259.345 379.95L276.587 379.662" stroke="black" stroke-width="17" stroke-miterlimit="10" stroke-linecap="round" stroke-linejoin="round"/>
<path d="M311.788 379.231L329.03 378.944" stroke="black" stroke-width="17" stroke-miterlimit="10" stroke-linecap="round" stroke-linejoin="round"/>
<path d="M230.465 70.8185C252.591 69.3821 274.862 67.9456 296.989 66.6528" stroke="black" stroke-width="17" stroke-miterlimit="10" stroke-linecap="round" stroke-linejoin="round"/>
<path d="M225.867 107.449C261.5 105.15 297.277 102.852 332.91 100.697" stroke="black" stroke-width="17" stroke-miterlimit="10" stroke-linecap="round" stroke-linejoin="round"/>
<path d="M371.168 142.934L220.266 148.733L222.694 211.894L373.598 206.095L371.168 142.934Z" stroke="black" stroke-width="17" stroke-miterlimit="10" stroke-linecap="round" stroke-linejoin="round"/>
</svg>
