<svg width="925" height="426" viewBox="0 0 925 426" fill="none" xmlns="http://www.w3.org/2000/svg">
<path d="M94.3877 263.125C130.033 263.125 158.929 234.23 158.929 198.587C158.929 162.944 130.033 134.05 94.3877 134.05C58.7428 134.05 29.8469 162.944 29.8469 198.587C29.8469 234.23 58.7428 263.125 94.3877 263.125Z" stroke="white" stroke-width="9" stroke-miterlimit="10"/>
<path d="M79.3367 198.014C68.2398 193.677 57.1428 189.34 46.0459 185.004C45.9821 184.239 45.2168 176.203 53.5714 171.42C62.2449 166.446 75.5102 167.913 82.5255 173.015C90.9438 179.137 90.5612 190.743 79.3367 198.014Z" fill="black" stroke="white" stroke-width="9" stroke-miterlimit="10"/>
<path d="M112.181 197.184C122.832 191.764 133.418 186.407 144.069 180.986C144.069 180.221 144.069 172.058 135.268 167.977C126.148 163.768 113.074 166.51 106.633 172.249C98.852 179.264 100.319 190.935 112.181 197.184Z" fill="black" stroke="white" stroke-width="9" stroke-miterlimit="10"/>
<path d="M65.6888 225.627C68.3673 228.242 74.5535 233.535 84.8214 236.341C88.5204 237.361 98.852 240.167 110.332 236.66C116.709 234.746 120.855 231.622 123.087 229.645" stroke="white" stroke-width="9" stroke-miterlimit="10" stroke-linecap="round"/>
<path d="M49.426 147.314L39.6684 113.706" stroke="white" stroke-width="9" stroke-miterlimit="10"/>
<path d="M65.4975 140.81L67.2194 103.503" stroke="white" stroke-width="9" stroke-miterlimit="10"/>
<path d="M97.5127 134.05L77.9336 99.2937" stroke="white" stroke-width="9" stroke-miterlimit="10"/>
<path d="M115.242 137.43L129.337 86.9219" stroke="white" stroke-width="9" stroke-miterlimit="10"/>
<path d="M128.061 140.491L144.069 122.188" stroke="white" stroke-width="9" stroke-miterlimit="10"/>
<path d="M29.0178 178.754C26.977 176.777 19.4515 169.89 13.2653 171.93C4.71936 174.8 4.08161 192.975 6.88773 204.646C7.46171 207.133 11.2245 222.821 18.3673 222.948C23.0229 223.012 27.9974 216.444 30.3571 207.005C29.9107 197.631 29.4643 188.192 29.0178 178.754Z" stroke="white" stroke-width="9" stroke-miterlimit="10"/>
<path d="M159.821 177.415C161.862 175.438 169.388 168.55 175.574 170.591C184.12 173.461 184.758 191.636 181.951 203.306C181.377 205.794 177.615 221.482 170.472 221.609C165.816 221.673 160.842 215.104 158.482 205.666C158.865 196.291 159.311 186.853 159.821 177.415Z" stroke="white" stroke-width="9" stroke-miterlimit="10"/>
<path d="M259.885 181.56C295.53 181.56 324.426 152.666 324.426 117.022C324.426 81.3791 295.53 52.4846 259.885 52.4846C224.24 52.4846 195.344 81.3791 195.344 117.022C195.344 152.666 224.24 181.56 259.885 181.56Z" stroke="white" stroke-width="9" stroke-miterlimit="10"/>
<path d="M302.997 102.482C291.9 106.819 280.804 111.155 269.77 115.556C269.196 115.046 263.202 109.689 266.071 100.442C269.069 90.8758 279.783 82.9681 288.393 81.9477C298.724 80.736 306.314 89.4728 302.997 102.482Z" fill="black" stroke="white" stroke-width="9" stroke-miterlimit="10"/>
<path d="M217.156 102.419C228.125 107.074 239.094 111.729 250.064 116.385C250.702 115.875 256.888 110.645 254.337 101.271C251.658 91.5772 241.199 83.3506 232.589 82.1389C222.258 80.6721 214.286 89.2814 217.156 102.419Z" fill="black" stroke="white" stroke-width="9" stroke-miterlimit="10"/>
<path d="M223.597 137.238C234.184 153.755 250.064 163.831 263.138 162.428C269.196 161.791 274.745 159.112 274.745 159.112C284.056 154.712 287.819 148.526 289.349 145.21C288.01 145.848 284.247 147.569 278.635 148.972C276.531 149.483 267.538 151.715 257.143 150.886C239.732 149.546 227.487 140.427 223.597 137.238Z" stroke="white" stroke-width="9" stroke-miterlimit="10" stroke-linecap="round" stroke-linejoin="round"/>
<path d="M214.923 65.8132C214.286 63.2623 210.714 49.8063 197.385 42.026C187.5 36.2865 177.87 36.8605 174.426 37.2431" stroke="white" stroke-width="9" stroke-miterlimit="10" stroke-linecap="round"/>
<path d="M230.995 59.2447C232.334 55.7372 236.161 44.1944 231.824 30.4833C226.786 14.6677 214.413 7.27014 211.543 5.61206" stroke="white" stroke-width="9" stroke-miterlimit="10" stroke-linecap="round"/>
<path d="M263.01 52.5486C260.395 49.1686 255.995 42.7276 253.826 33.3531C251.594 23.5959 252.87 15.5605 253.826 11.3516" stroke="white" stroke-width="9" stroke-miterlimit="10" stroke-linecap="round"/>
<path d="M280.74 55.9284C271.301 44.8958 269.451 29.973 275.829 19.0679C281.696 8.99186 292.347 6.05833 294.898 5.48438" stroke="white" stroke-width="9" stroke-miterlimit="10" stroke-linecap="round"/>
<path d="M293.559 58.9895C293.559 58.2243 293.622 43.2377 306.377 35.2662C315.051 29.8455 326.212 29.8455 335.076 35.2662" stroke="white" stroke-width="9" stroke-miterlimit="10" stroke-linecap="round"/>
<path d="M194.515 97.2529C192.474 95.276 184.949 88.3886 178.763 90.4293C170.217 93.299 169.579 111.474 172.385 123.145C172.959 125.632 176.722 141.32 183.865 141.447C188.52 141.511 193.495 134.942 195.855 125.504C195.408 116.13 194.962 106.691 194.515 97.2529Z" stroke="white" stroke-width="9" stroke-miterlimit="10"/>
<path d="M325.255 95.8499C327.296 93.8729 334.821 86.9855 341.008 89.0262C349.554 91.896 350.191 110.071 347.385 121.741C346.811 124.229 343.048 139.917 335.906 140.044C331.25 140.108 326.276 133.539 323.916 124.101C324.362 114.726 324.809 105.288 325.255 95.8499Z" stroke="white" stroke-width="9" stroke-miterlimit="10"/>
<path d="M479.464 329.831C515.109 329.831 544.005 300.937 544.005 265.293C544.005 229.65 515.109 200.756 479.464 200.756C443.819 200.756 414.923 229.65 414.923 265.293C414.923 300.937 443.819 329.831 479.464 329.831Z" stroke="white" stroke-width="9" stroke-miterlimit="10"/>
<path d="M519.324 238.636C508.227 242.973 497.13 247.31 486.033 251.646C485.969 252.411 485.204 260.447 493.559 265.23C502.232 270.204 515.497 268.737 522.513 263.635C530.931 257.513 530.548 245.907 519.324 238.636Z" fill="black" stroke="white" stroke-width="9" stroke-miterlimit="10"/>
<path d="M441.008 235.32C451.658 240.741 462.245 246.098 472.895 251.519C472.895 252.284 472.895 260.447 464.094 264.528C454.974 268.737 441.9 265.995 435.459 260.255C427.615 253.24 429.082 241.634 441.008 235.32Z" fill="black" stroke="white" stroke-width="9" stroke-miterlimit="10"/>
<path d="M498.597 195.654C502.742 189.468 513.329 165.171 521.747 157.071C535.587 143.679 551.977 127.927 562.054 139.853C569.707 148.909 566.709 165.553 578.508 192.465C582.398 201.457 586.288 207.707 588.967 211.597" stroke="white" stroke-width="9" stroke-miterlimit="10" stroke-linecap="round"/>
<path d="M510.651 209.046C552.36 222.247 582.079 239.529 585.332 258.788C587.5 271.734 587.883 297.052 596.301 334.359C597.704 340.545 598.98 345.519 599.809 348.708" stroke="white" stroke-width="9" stroke-miterlimit="10" stroke-linecap="round"/>
<path d="M455.804 198.013C455.612 182.262 453.826 144.317 444.643 128.82C428.316 101.271 400.638 115.428 394.324 92.4699C392.666 86.3478 391.964 75.5702 398.788 56.1196" stroke="white" stroke-width="9" stroke-miterlimit="10" stroke-linecap="round"/>
<path d="M441.326 208.217C430.23 209.429 407.844 186.407 395.408 172.823C378.954 154.776 373.597 125.313 368.048 127.864C365.179 129.203 362.5 138.896 363.01 173.78" stroke="white" stroke-width="9" stroke-miterlimit="10" stroke-linecap="round"/>
<path d="M435.14 216.699C402.232 215.615 375.064 228.305 370.855 240.741C361.48 268.546 380.995 300.623 375.319 364.141C372.895 391.627 366.071 421.344 361.352 420.579C356.122 419.75 353.954 381.55 352.997 350.748" stroke="white" stroke-width="9" stroke-miterlimit="10" stroke-linecap="round"/>
<path d="M450.765 286.211C451.913 289.017 457.015 300.56 469.898 306.108C473.087 307.447 484.12 312.23 495.408 306.745C503.189 302.919 506.888 296.287 508.163 293.672C501.084 294.884 491.008 295.777 479.018 294.246C466.9 292.652 457.334 289.208 450.765 286.211Z" stroke="white" stroke-width="9" stroke-miterlimit="10" stroke-linecap="round"/>
<path d="M830.612 271.097C866.257 271.097 895.153 242.202 895.153 206.559C895.153 170.916 866.257 142.021 830.612 142.021C794.967 142.021 766.071 170.916 766.071 206.559C766.071 242.202 794.967 271.097 830.612 271.097Z" stroke="white" stroke-width="9" stroke-miterlimit="10"/>
<path d="M845.663 206.049C856.76 201.712 867.857 197.376 878.954 193.039C879.018 192.274 879.783 184.238 871.428 179.456C862.755 174.481 849.49 175.948 842.474 181.05C834.056 187.172 834.439 198.779 845.663 206.049Z" fill="black" stroke="white" stroke-width="9" stroke-miterlimit="10"/>
<path d="M812.819 205.22C802.168 199.799 791.582 194.442 780.931 189.022C780.931 188.256 780.931 180.093 789.732 176.012C798.852 171.803 811.926 174.545 818.367 180.285C826.148 187.3 824.681 198.906 812.819 205.22Z" fill="black" stroke="white" stroke-width="9" stroke-miterlimit="10"/>
<path d="M859.311 233.662C856.633 236.277 850.446 241.57 840.178 244.376C836.479 245.396 826.148 248.202 814.668 244.695C808.291 242.782 804.145 239.657 801.913 237.68" stroke="white" stroke-width="9" stroke-miterlimit="10" stroke-linecap="round"/>
<path d="M875.574 155.35L885.332 121.741" stroke="white" stroke-width="9" stroke-miterlimit="10"/>
<path d="M859.502 148.845L857.781 111.538" stroke="white" stroke-width="9" stroke-miterlimit="10"/>
<path d="M827.487 142.085L847.066 107.329" stroke="white" stroke-width="9" stroke-miterlimit="10"/>
<path d="M809.758 145.465L795.663 94.957" stroke="white" stroke-width="9" stroke-miterlimit="10"/>
<path d="M796.939 148.526L780.931 130.223" stroke="white" stroke-width="9" stroke-miterlimit="10"/>
<path d="M895.982 186.79C898.023 184.813 905.548 177.925 911.735 179.966C920.28 182.836 920.918 201.011 918.112 212.681C917.538 215.168 913.775 230.856 906.633 230.984C901.977 231.048 897.003 224.479 894.643 215.041C895.089 205.666 895.536 196.228 895.982 186.79Z" stroke="white" stroke-width="9" stroke-miterlimit="10"/>
<path d="M765.179 185.45C763.138 183.473 755.612 176.586 749.426 178.627C740.88 181.496 740.242 199.671 743.048 211.342C743.622 213.829 747.385 229.517 754.528 229.644C759.184 229.708 764.158 223.14 766.518 213.701C766.135 204.263 765.689 194.825 765.179 185.45Z" stroke="white" stroke-width="9" stroke-miterlimit="10"/>
<path d="M665.115 189.595C700.76 189.595 729.656 160.701 729.656 125.058C729.656 89.4145 700.76 60.52 665.115 60.52C629.47 60.52 600.574 89.4145 600.574 125.058C600.574 160.701 629.47 189.595 665.115 189.595Z" stroke="white" stroke-width="9" stroke-miterlimit="10"/>
<path d="M622.003 110.518C633.099 114.854 644.196 119.191 655.23 123.591C655.804 123.081 661.798 117.724 658.928 108.477C655.931 98.911 645.217 91.0032 636.607 89.9828C626.276 88.7712 618.686 97.508 622.003 110.518Z" fill="black" stroke="white" stroke-width="9" stroke-miterlimit="10"/>
<path d="M707.844 110.454C696.875 115.109 685.906 119.765 674.936 124.42C674.298 123.91 668.112 118.681 670.663 109.306C673.342 99.6126 683.801 91.386 692.411 90.1743C702.742 88.7075 710.714 97.3168 707.844 110.454Z" fill="black" stroke="white" stroke-width="9" stroke-miterlimit="10"/>
<path d="M701.403 145.274C690.816 161.791 674.936 171.867 661.862 170.464C655.804 169.826 650.255 167.148 650.255 167.148C640.944 162.747 637.181 156.561 635.651 153.245C636.99 153.883 640.753 155.605 646.365 157.008C648.469 157.518 657.462 159.75 667.857 158.921C685.268 157.518 697.513 148.462 701.403 145.274Z" stroke="white" stroke-width="9" stroke-miterlimit="10" stroke-linecap="round" stroke-linejoin="round"/>
<path d="M710.077 73.7848C710.714 71.2339 714.286 57.7779 727.615 49.9977C737.5 44.2582 747.13 44.8321 750.574 45.2148" stroke="white" stroke-width="9" stroke-miterlimit="10" stroke-linecap="round"/>
<path d="M694.005 67.2799C692.666 63.7724 688.839 52.2296 693.176 38.5185C698.214 22.7029 710.587 15.3053 713.457 13.6472" stroke="white" stroke-width="9" stroke-miterlimit="10" stroke-linecap="round"/>
<path d="M661.99 60.5837C664.605 57.2038 669.005 50.7628 671.173 41.3882C673.406 31.631 672.13 23.5957 671.173 19.3867" stroke="white" stroke-width="9" stroke-miterlimit="10" stroke-linecap="round"/>
<path d="M644.26 63.9001C653.699 52.8674 655.548 37.9447 649.171 27.0396C643.304 16.9635 632.653 14.03 630.102 13.4561" stroke="white" stroke-width="9" stroke-miterlimit="10" stroke-linecap="round"/>
<path d="M631.441 67.0247C631.441 66.2594 631.378 51.2729 618.622 43.3013C609.949 37.8807 598.788 37.8807 589.923 43.3013" stroke="white" stroke-width="9" stroke-miterlimit="10" stroke-linecap="round"/>
<path d="M730.485 105.288C732.525 103.311 740.051 96.424 746.237 98.4647C754.783 101.334 755.421 119.51 752.615 131.18C752.041 133.667 748.278 149.355 741.135 149.483C736.48 149.546 731.505 142.978 729.145 133.54C729.592 124.165 730.038 114.727 730.485 105.288Z" stroke="white" stroke-width="9" stroke-miterlimit="10"/>
<path d="M599.745 103.885C597.704 101.908 590.179 95.0209 583.992 97.0616C575.446 99.9314 574.809 118.107 577.615 129.777C578.189 132.264 581.951 147.952 589.094 148.08C593.75 148.143 598.724 141.575 601.084 132.136C600.638 122.762 600.191 113.324 599.745 103.885Z" stroke="white" stroke-width="9" stroke-miterlimit="10"/>
</svg>
