<svg width="1311" height="604" viewBox="0 0 1311 604" fill="none" xmlns="http://www.w3.org/2000/svg">
<g clip-path="url(#clip0)">
<path d="M133.776 373.069C184.295 373.069 225.249 332.102 225.249 281.565C225.249 231.029 184.295 190.061 133.776 190.061C83.2561 190.061 42.302 231.029 42.302 281.565C42.302 332.102 83.2561 373.069 133.776 373.069Z" stroke="black" stroke-width="17" stroke-miterlimit="10"/>
<path d="M112.444 280.752C96.7161 274.603 80.9884 268.455 65.2607 262.306C65.1704 261.221 64.0857 249.828 75.9266 243.047C88.2195 235.994 107.02 238.074 116.963 245.307C128.894 253.987 128.352 270.444 112.444 280.752Z" fill="white" stroke="black" stroke-width="17" stroke-miterlimit="10"/>
<path d="M158.994 279.576C174.089 271.89 189.093 264.295 204.188 256.61C204.188 255.524 204.188 243.951 191.715 238.164C178.789 232.196 160.259 236.084 151.13 244.222C140.103 254.168 142.182 270.715 158.994 279.576Z" fill="white" stroke="black" stroke-width="17" stroke-miterlimit="10"/>
<path d="M93.1005 319.903C96.8969 323.61 105.665 331.115 120.217 335.093C125.46 336.54 140.103 340.519 156.373 335.546C165.412 332.833 171.287 328.402 174.45 325.599" stroke="black" stroke-width="17" stroke-miterlimit="10" stroke-linecap="round"/>
<path d="M70.0514 208.868L56.2219 161.218" stroke="black" stroke-width="17" stroke-miterlimit="10"/>
<path d="M92.8293 199.646L95.2699 146.75" stroke="black" stroke-width="17" stroke-miterlimit="10"/>
<path d="M138.205 190.061L110.455 140.783" stroke="black" stroke-width="17" stroke-miterlimit="10"/>
<path d="M163.333 194.853L183.309 123.241" stroke="black" stroke-width="17" stroke-miterlimit="10"/>
<path d="M181.501 199.193L204.188 173.243" stroke="black" stroke-width="17" stroke-miterlimit="10"/>
<path d="M41.1269 253.445C38.2345 250.642 27.5686 240.877 18.8009 243.77C6.68877 247.839 5.78488 273.608 9.76199 290.155C10.5755 293.681 15.9084 315.925 26.032 316.105C32.6304 316.196 39.6807 306.883 43.0251 293.501C42.3924 280.209 41.7596 266.827 41.1269 253.445Z" stroke="black" stroke-width="17" stroke-miterlimit="10"/>
<path d="M226.515 251.546C229.407 248.743 240.073 238.978 248.841 241.871C260.953 245.94 261.857 271.71 257.879 288.256C257.066 291.783 251.733 314.026 241.609 314.207C235.011 314.297 227.961 304.984 224.616 291.602C225.159 278.31 225.791 264.928 226.515 251.546Z" stroke="black" stroke-width="17" stroke-miterlimit="10"/>
<path d="M368.335 257.423C418.854 257.423 459.808 216.456 459.808 165.919C459.808 115.383 418.854 74.415 368.335 74.415C317.815 74.415 276.861 115.383 276.861 165.919C276.861 216.456 317.815 257.423 368.335 257.423Z" stroke="black" stroke-width="17" stroke-miterlimit="10"/>
<path d="M429.437 145.304C413.71 151.452 397.982 157.601 382.345 163.839C381.531 163.116 373.035 155.521 377.102 142.41C381.351 128.847 396.536 117.635 408.738 116.189C423.381 114.471 434.138 126.858 429.437 145.304Z" fill="white" stroke="black" stroke-width="17" stroke-miterlimit="10"/>
<path d="M307.774 145.213C323.321 151.814 338.868 158.414 354.415 165.015C355.319 164.292 364.086 156.877 360.471 143.586C356.674 129.842 341.851 118.178 329.648 116.46C315.005 114.38 303.707 126.587 307.774 145.213Z" fill="white" stroke="black" stroke-width="17" stroke-miterlimit="10"/>
<path d="M316.903 194.582C331.908 218.001 354.415 232.287 372.944 230.298C381.531 229.393 389.395 225.596 389.395 225.596C402.592 219.357 407.925 210.586 410.094 205.884C408.196 206.789 402.863 209.23 394.909 211.219C391.926 211.943 379.181 215.107 364.448 213.932C339.772 212.033 322.417 199.103 316.903 194.582Z" stroke="black" stroke-width="17" stroke-miterlimit="10" stroke-linecap="round" stroke-linejoin="round"/>
<path d="M304.61 93.3127C303.707 89.6959 298.645 70.6174 279.754 59.5863C265.743 51.4486 252.095 52.2624 247.214 52.8049" stroke="black" stroke-width="17" stroke-miterlimit="10" stroke-linecap="round"/>
<path d="M327.388 83.9995C329.287 79.0265 334.71 62.6606 328.564 43.2205C321.423 20.7966 303.887 10.3079 299.82 7.95703" stroke="black" stroke-width="17" stroke-miterlimit="10" stroke-linecap="round"/>
<path d="M372.764 74.5055C369.058 69.7133 362.821 60.581 359.748 47.2893C356.584 33.4552 358.392 22.0624 359.748 16.0947" stroke="black" stroke-width="17" stroke-miterlimit="10" stroke-linecap="round"/>
<path d="M397.892 79.2977C384.514 63.6552 381.893 42.4971 390.932 27.0354C399.248 12.7492 414.343 8.5899 417.958 7.77612" stroke="black" stroke-width="17" stroke-miterlimit="10" stroke-linecap="round"/>
<path d="M416.06 83.6377C416.06 82.5527 416.15 61.3042 434.228 50.0018C446.521 42.3161 462.339 42.3161 474.903 50.0018" stroke="black" stroke-width="17" stroke-miterlimit="10" stroke-linecap="round"/>
<path d="M275.686 137.889C272.794 135.086 262.128 125.321 253.36 128.214C241.248 132.283 240.344 158.053 244.321 174.599C245.135 178.126 250.468 200.369 260.591 200.55C267.189 200.64 274.24 191.327 277.584 177.945C276.951 164.653 276.319 151.271 275.686 137.889Z" stroke="black" stroke-width="17" stroke-miterlimit="10"/>
<path d="M460.983 135.9C463.876 133.097 474.542 123.332 483.309 126.225C495.421 130.294 496.325 156.063 492.348 172.61C491.535 176.136 486.202 198.38 476.078 198.56C469.48 198.651 462.429 189.338 459.085 175.956C459.718 162.664 460.35 149.282 460.983 135.9Z" stroke="black" stroke-width="17" stroke-miterlimit="10"/>
<path d="M679.543 467.648C730.063 467.648 771.017 426.68 771.017 376.144C771.017 325.607 730.063 284.639 679.543 284.639C629.024 284.639 588.07 325.607 588.07 376.144C588.07 426.68 629.024 467.648 679.543 467.648Z" stroke="black" stroke-width="17" stroke-miterlimit="10"/>
<path d="M736.036 338.349C720.309 344.497 704.581 350.646 688.853 356.794C688.763 357.879 687.678 369.272 699.519 376.053C711.812 383.106 730.613 381.027 740.556 373.793C752.487 365.113 751.945 348.656 736.036 338.349Z" fill="white" stroke="black" stroke-width="17" stroke-miterlimit="10"/>
<path d="M625.039 333.647C640.134 341.332 655.138 348.928 670.233 356.613C670.233 357.698 670.233 369.272 657.76 375.059C644.834 381.026 626.304 377.138 617.175 369.001C606.057 359.055 608.136 342.598 625.039 333.647Z" fill="white" stroke="black" stroke-width="17" stroke-miterlimit="10"/>
<path d="M706.66 277.406C712.535 268.635 727.54 234.186 739.471 222.702C759.086 203.714 782.316 181.381 796.597 198.289C807.444 211.129 803.195 234.728 819.917 272.885C825.431 285.634 830.945 294.495 834.741 300.011" stroke="black" stroke-width="17" stroke-miterlimit="10" stroke-linecap="round"/>
<path d="M723.744 296.394C782.858 315.111 824.979 339.614 829.589 366.921C832.662 385.276 833.205 421.172 845.136 474.068C847.124 482.838 848.932 489.891 850.107 494.412" stroke="black" stroke-width="17" stroke-miterlimit="10" stroke-linecap="round"/>
<path d="M646.009 280.751C645.738 258.418 643.207 204.619 630.191 182.647C607.052 143.586 567.823 163.659 558.874 131.108C556.524 122.428 555.53 107.147 565.201 79.5688" stroke="black" stroke-width="17" stroke-miterlimit="10" stroke-linecap="round"/>
<path d="M625.491 295.219C609.763 296.937 578.037 264.295 560.411 245.036C537.091 219.447 529.498 177.674 521.634 181.291C517.567 183.189 513.77 196.933 514.493 246.392" stroke="black" stroke-width="17" stroke-miterlimit="10" stroke-linecap="round"/>
<path d="M616.723 307.244C570.082 305.707 531.577 323.701 525.611 341.332C512.324 380.755 539.983 426.236 531.938 516.293C528.504 555.264 518.832 597.399 512.143 596.314C504.731 595.139 501.658 540.978 500.302 497.305" stroke="black" stroke-width="17" stroke-miterlimit="10" stroke-linecap="round"/>
<path d="M638.868 405.801C640.495 409.78 647.727 426.146 665.985 434.012C670.505 435.911 686.142 442.692 702.141 434.916C713.168 429.491 718.411 420.088 720.218 416.38C710.185 418.098 695.904 419.364 678.911 417.194C661.737 414.934 648.178 410.051 638.868 405.801Z" stroke="black" stroke-width="17" stroke-miterlimit="10" stroke-linecap="round"/>
<path d="M1177.22 384.372C1227.74 384.372 1268.7 343.404 1268.7 292.868C1268.7 242.331 1227.74 201.364 1177.22 201.364C1126.7 201.364 1085.75 242.331 1085.75 292.868C1085.75 343.404 1126.7 384.372 1177.22 384.372Z" stroke="black" stroke-width="17" stroke-miterlimit="10"/>
<path d="M1198.56 292.144C1214.28 285.996 1230.01 279.847 1245.74 273.699C1245.83 272.614 1246.91 261.221 1235.07 254.44C1222.78 247.387 1203.98 249.467 1194.04 256.7C1182.11 265.38 1182.65 281.837 1198.56 292.144Z" fill="white" stroke="black" stroke-width="17" stroke-miterlimit="10"/>
<path d="M1152.01 290.969C1136.91 283.283 1121.91 275.688 1106.81 268.002C1106.81 266.917 1106.81 255.344 1119.29 249.557C1132.21 243.589 1150.74 247.477 1159.87 255.615C1170.9 265.561 1168.82 282.017 1152.01 290.969Z" fill="white" stroke="black" stroke-width="17" stroke-miterlimit="10"/>
<path d="M1217.9 331.296C1214.1 335.003 1205.34 342.508 1190.78 346.486C1185.54 347.933 1170.9 351.911 1154.63 346.938C1145.59 344.226 1139.71 339.795 1136.55 336.992" stroke="black" stroke-width="17" stroke-miterlimit="10" stroke-linecap="round"/>
<path d="M1240.95 220.261L1254.78 172.61" stroke="black" stroke-width="17" stroke-miterlimit="10"/>
<path d="M1218.17 211.038L1215.73 158.143" stroke="black" stroke-width="17" stroke-miterlimit="10"/>
<path d="M1172.8 201.454L1200.54 152.176" stroke="black" stroke-width="17" stroke-miterlimit="10"/>
<path d="M1147.67 206.246L1127.69 134.634" stroke="black" stroke-width="17" stroke-miterlimit="10"/>
<path d="M1129.5 210.586L1106.81 184.636" stroke="black" stroke-width="17" stroke-miterlimit="10"/>
<path d="M1269.87 264.838C1272.77 262.035 1283.43 252.269 1292.2 255.163C1304.31 259.232 1305.21 285.001 1301.24 301.548C1300.42 305.074 1295.09 327.317 1284.97 327.498C1278.37 327.589 1271.32 318.275 1267.97 304.893C1268.61 291.602 1269.24 278.22 1269.87 264.838Z" stroke="black" stroke-width="17" stroke-miterlimit="10"/>
<path d="M1084.49 262.939C1081.59 260.136 1070.93 250.371 1062.16 253.264C1050.05 257.333 1049.14 283.103 1053.12 299.649C1053.93 303.176 1059.27 325.419 1069.39 325.6C1075.99 325.69 1083.04 316.377 1086.38 302.995C1085.84 289.613 1085.21 276.231 1084.49 262.939Z" stroke="black" stroke-width="17" stroke-miterlimit="10"/>
<path d="M942.665 268.816C993.185 268.816 1034.14 227.848 1034.14 177.312C1034.14 126.776 993.185 85.8079 942.665 85.8079C892.146 85.8079 851.192 126.776 851.192 177.312C851.192 227.848 892.146 268.816 942.665 268.816Z" stroke="black" stroke-width="17" stroke-miterlimit="10"/>
<path d="M881.562 156.696C897.29 162.845 913.018 168.993 928.655 175.232C929.469 174.509 937.965 166.914 933.898 153.803C929.649 140.24 914.464 129.028 902.262 127.581C887.619 125.863 876.862 138.251 881.562 156.696Z" fill="white" stroke="black" stroke-width="17" stroke-miterlimit="10"/>
<path d="M1003.23 156.606C987.679 163.207 972.132 169.807 956.585 176.408C955.681 175.684 946.914 168.27 950.529 154.978C954.325 141.235 969.149 129.571 981.352 127.853C995.995 125.773 1007.29 137.98 1003.23 156.606Z" fill="white" stroke="black" stroke-width="17" stroke-miterlimit="10"/>
<path d="M994.097 205.975C979.092 229.393 956.585 243.68 938.056 241.69C929.469 240.786 921.605 236.989 921.605 236.989C908.408 230.75 903.075 221.979 900.906 217.277C902.804 218.181 908.137 220.623 916.091 222.612C919.074 223.335 931.819 226.5 946.552 225.325C971.228 223.335 988.583 210.496 994.097 205.975Z" stroke="black" stroke-width="17" stroke-miterlimit="10" stroke-linecap="round" stroke-linejoin="round"/>
<path d="M1006.39 104.615C1007.29 100.998 1012.36 81.9199 1031.25 70.8888C1045.26 62.7511 1058.91 63.5648 1063.79 64.1074" stroke="black" stroke-width="17" stroke-miterlimit="10" stroke-linecap="round"/>
<path d="M983.612 95.3924C981.713 90.4193 976.29 74.0534 982.437 54.6133C989.577 32.1894 1007.11 21.7008 1011.18 19.3499" stroke="black" stroke-width="17" stroke-miterlimit="10" stroke-linecap="round"/>
<path d="M938.236 85.8983C941.942 81.1061 948.179 71.9738 951.252 58.6822C954.416 44.848 952.608 33.4552 951.252 27.4875" stroke="black" stroke-width="17" stroke-miterlimit="10" stroke-linecap="round"/>
<path d="M913.108 90.6002C926.486 74.9576 929.107 53.7996 920.068 38.3379C911.752 24.0517 896.657 19.8924 893.042 19.0786" stroke="black" stroke-width="17" stroke-miterlimit="10" stroke-linecap="round"/>
<path d="M894.94 95.0305C894.94 93.9455 894.85 72.697 876.772 61.3946C864.479 53.709 848.661 53.709 836.097 61.3946" stroke="black" stroke-width="17" stroke-miterlimit="10" stroke-linecap="round"/>
<path d="M1035.31 149.282C1038.21 146.479 1048.87 136.714 1057.64 139.607C1069.75 143.676 1070.66 169.446 1066.68 185.992C1065.87 189.519 1060.53 211.762 1050.41 211.943C1043.81 212.033 1036.76 202.72 1033.42 189.338C1034.05 176.046 1034.68 162.664 1035.31 149.282Z" stroke="black" stroke-width="17" stroke-miterlimit="10"/>
<path d="M850.017 147.293C847.124 144.49 836.458 134.725 827.691 137.618C815.579 141.687 814.675 167.456 818.652 184.003C819.465 187.529 824.798 209.772 834.922 209.953C841.52 210.044 848.571 200.731 851.915 187.348C851.282 174.057 850.65 160.675 850.017 147.293Z" stroke="black" stroke-width="17" stroke-miterlimit="10"/>
</g>
<defs>
<clipPath id="clip0">
<rect width="1311" height="604" fill="white"/>
</clipPath>
</defs>
</svg>
