<svg width="445" height="337" viewBox="0 0 445 337" fill="none" xmlns="http://www.w3.org/2000/svg">
<g clip-path="url(#clip0)">
<path d="M6.88003 253.402C6.05442 258.065 3.99041 269.792 10.1824 274.73C14.1729 277.953 20.2273 277.061 23.9425 276.101C30.6161 276.17 40.7985 276.444 53.045 277.679C75.6803 280.01 76.5747 281.382 96.114 285.291C127.693 291.6 131.752 284.811 171.863 291.326C176.404 292.08 172.345 291.463 205.919 298.047C234.953 303.739 235.503 300.516 259.446 304.425C291.919 309.637 303.96 303.053 321.848 312.037C331.548 316.906 334.369 321.981 348.611 327.262C355.629 329.868 360.376 331.651 365.192 331.102C380.465 329.251 389.341 304.288 394.501 289.2C419.475 216.163 432.616 179.198 435.368 148.612C438.12 118.231 433.854 122.62 437.019 91.1423C439.014 71.5285 441.698 59.8014 434.542 52.1205C426.974 43.9595 413.283 45.7426 403.376 46.6341C364.848 50.2688 326.044 43.8909 287.447 41.4906C249.057 39.0904 255.593 44.3024 217.34 41.4906C165.121 37.5816 119.231 10.6298 119.231 10.6298C113.245 8.09239 100.999 2.81176 91.2291 8.09239C81.3907 13.4416 80.7027 27.3632 78.3635 31.2037C39.7665 94.0912 28.0705 133.456 28.0705 133.456C15.3425 171.38 22.4289 164.385 6.88003 253.402Z" stroke="white" stroke-width="17" stroke-miterlimit="10" stroke-linecap="round" stroke-linejoin="round"/>
<path d="M395.739 98.6174C384.869 112.676 372.553 131.673 362.646 155.744C343.038 203.27 342.832 246.338 344.827 271.301" stroke="white" stroke-width="17" stroke-miterlimit="10" stroke-linecap="round" stroke-linejoin="round"/>
<path d="M137.05 220.552C149.021 209.442 164.226 197.372 182.94 186.262C225.114 161.162 265.707 152.59 292.539 149.435" stroke="white" stroke-width="17" stroke-miterlimit="10" stroke-linecap="round" stroke-linejoin="round"/>
<path d="M152.393 173.575C163.538 164.66 182.321 151.972 208.465 144.36C225.94 139.285 241.42 138.051 253.047 137.982" stroke="white" stroke-width="17" stroke-miterlimit="10" stroke-linecap="round" stroke-linejoin="round"/>
<path d="M177.986 58.0183C182.321 66.1107 187.618 78.2493 190.37 93.6797C192.572 106.23 192.434 117.065 191.746 125.226" stroke="white" stroke-width="17" stroke-miterlimit="10" stroke-linecap="round" stroke-linejoin="round"/>
</g>
<defs>
<clipPath id="clip0">
<rect width="445" height="337" fill="white"/>
</clipPath>
</defs>
</svg>
