<svg width="501" height="480" viewBox="0 0 501 480" fill="none" xmlns="http://www.w3.org/2000/svg">
<path d="M233.722 337.245C277.237 337.245 312.512 301.996 312.512 258.515C312.512 215.034 277.237 179.786 233.722 179.786C190.208 179.786 154.932 215.034 154.932 258.515C154.932 301.996 190.208 337.245 233.722 337.245Z" stroke="white" stroke-width="13" stroke-miterlimit="10"/>
<path d="M282.382 225.919C268.835 231.209 255.288 236.499 241.741 241.789C241.663 242.723 240.729 252.525 250.928 258.36C261.517 264.428 277.711 262.639 286.275 256.415C296.552 248.947 296.084 234.865 282.382 225.919Z" fill="black" stroke="white" stroke-width="13" stroke-miterlimit="10"/>
<path d="M186.775 221.874C199.777 228.486 212.701 235.021 225.703 241.634C225.703 242.567 225.703 252.525 214.959 257.504C203.826 262.639 187.865 259.293 180.002 252.292C170.426 243.734 172.216 229.575 186.775 221.874Z" fill="black" stroke="white" stroke-width="13" stroke-miterlimit="10"/>
<path d="M257.079 179.708C266.733 172.162 291.647 142.522 311.344 132.642C343.888 116.305 382.27 97.0891 405.939 111.637C423.845 122.684 416.916 142.989 444.477 175.818C453.664 186.788 462.773 194.412 469.001 199.157" stroke="white" stroke-width="13" stroke-miterlimit="10" stroke-linecap="round"/>
<path d="M285.34 199.157C383.127 215.261 452.963 236.344 460.515 259.838C465.576 275.63 466.588 306.515 486.208 352.026C489.477 359.572 492.436 365.64 494.382 369.53" stroke="white" stroke-width="13" stroke-miterlimit="10" stroke-linecap="round"/>
<path d="M221.499 179.708C221.11 160.493 217.295 114.204 198.142 95.2999C164.042 61.6921 106.195 78.9628 93.0373 50.9563C89.5338 43.4879 88.0546 30.3404 102.38 6.61267" stroke="white" stroke-width="13" stroke-miterlimit="10" stroke-linecap="round"/>
<path d="M191.213 192.156C168.012 193.634 121.221 165.549 95.3729 148.979C61.0387 126.963 49.8275 91.0211 38.1492 94.1329C32.0764 95.7667 26.5487 107.592 27.6387 150.146" stroke="white" stroke-width="13" stroke-miterlimit="10" stroke-linecap="round"/>
<path d="M178.289 202.502C109.465 201.18 52.786 216.661 43.9884 231.832C24.3688 265.75 65.0872 304.882 53.331 382.366C48.1926 415.896 33.945 452.149 24.1352 451.216C13.2355 450.204 8.71983 403.605 6.61774 366.029" stroke="white" stroke-width="13" stroke-miterlimit="10" stroke-linecap="round"/>
<path d="M198.687 283.955C200.089 287.378 206.317 301.459 222.044 308.227C225.937 309.861 239.406 315.695 253.186 309.005C262.684 304.337 267.2 296.246 268.757 293.057C260.115 294.535 247.814 295.624 233.177 293.757C218.462 291.812 206.706 287.611 198.687 283.955Z" stroke="white" stroke-width="13" stroke-miterlimit="10" stroke-linecap="round"/>
<path d="M54.4988 472.22C61.8951 451.449 72.2499 427.488 87.1981 402.204C113.825 357.16 144.811 325.031 169.18 303.637" stroke="white" stroke-width="13" stroke-miterlimit="10" stroke-linecap="round"/>
<path d="M395.506 455.883C384.606 432.078 369.891 404.46 349.96 375.365C331.353 348.214 312.356 325.887 295.15 307.916" stroke="white" stroke-width="13" stroke-miterlimit="10" stroke-linecap="round"/>
<path d="M96.5408 471.053C110.555 452.382 124.569 433.712 138.583 415.041C141.697 434.489 144.811 453.938 147.925 473.387" stroke="white" stroke-width="13" stroke-miterlimit="10" stroke-linecap="round" stroke-linejoin="round"/>
<path d="M352.685 466.775C338.671 448.104 324.657 429.433 310.643 410.762C307.529 430.211 304.415 449.66 301.301 469.109" stroke="white" stroke-width="13" stroke-miterlimit="10" stroke-linecap="round" stroke-linejoin="round"/>
</svg>
