<svg width="355" height="333" viewBox="0 0 355 333" fill="none" xmlns="http://www.w3.org/2000/svg">
<path d="M177.44 324.064C244.906 324.064 299.598 271.396 299.598 206.426C299.598 141.456 244.906 88.7876 177.44 88.7876C109.973 88.7876 55.2812 141.456 55.2812 206.426C55.2812 271.396 109.973 324.064 177.44 324.064Z" stroke="black" stroke-width="17" stroke-miterlimit="10"/>
<path d="M148.952 205.496C127.949 197.591 106.945 189.687 85.9416 181.782C85.8208 180.387 84.3723 165.741 100.185 157.022C116.602 147.955 141.71 150.629 154.988 159.928C170.921 171.088 170.197 192.128 148.952 205.496Z" fill="white" stroke="black" stroke-width="17" stroke-miterlimit="10"/>
<path d="M211.118 203.984C231.276 194.104 251.314 184.339 271.473 174.459C271.473 173.064 271.473 158.185 254.815 150.745C237.553 143.073 212.808 148.072 200.616 158.534C185.889 171.32 188.666 192.476 211.118 203.984Z" fill="white" stroke="black" stroke-width="17" stroke-miterlimit="10"/>
<path d="M126.138 279.659C131.208 274.893 142.917 265.245 162.351 260.246C169.352 258.387 188.907 253.272 210.635 259.665C222.706 263.153 230.552 268.848 234.777 272.452" stroke="black" stroke-width="17" stroke-miterlimit="10" stroke-linecap="round"/>
<path d="M92.3391 113.083L73.8705 51.8223" stroke="black" stroke-width="17" stroke-miterlimit="10"/>
<path d="M122.758 101.109L126.017 33.2231" stroke="black" stroke-width="17" stroke-miterlimit="10"/>
<path d="M183.354 88.9038L146.297 25.4351" stroke="black" stroke-width="17" stroke-miterlimit="10"/>
<path d="M216.912 94.9484L243.589 3" stroke="black" stroke-width="17" stroke-miterlimit="10"/>
<path d="M241.175 100.644L271.473 67.1665" stroke="black" stroke-width="17" stroke-miterlimit="10"/>
<path d="M53.7119 170.39C49.8492 166.787 35.6054 154.233 23.8966 157.952C7.72143 163.183 6.51433 196.313 11.8256 217.585C12.912 222.119 20.0338 250.715 33.5534 250.947C42.3652 251.063 51.7806 239.09 56.2468 221.886C55.4019 204.799 54.5569 187.595 53.7119 170.39Z" stroke="black" stroke-width="17" stroke-miterlimit="10"/>
<path d="M301.288 167.833C305.151 164.23 319.395 151.675 331.103 155.395C347.279 160.626 348.486 193.755 343.174 215.028C342.088 219.561 334.966 248.157 321.447 248.389C312.635 248.506 303.219 236.533 298.753 219.329C299.477 202.241 300.322 185.037 301.288 167.833Z" stroke="black" stroke-width="17" stroke-miterlimit="10"/>
</svg>
